# xmcd
# 
# Track frame offsets:
#     150
#     16802
#     32817
#     48666
#     63933
#     81673
#     96880
# 
# Disc length: 1536
# 
# Revision: 0
# Processed by: cddbd v1.5.2PL0 Copyright (c) Steve Scherf et al.
# Submitted via: fre:ac v1.0.17
# 
DISCID=5705fe07
DTITLE=Todd Richard - Journey On
DYEAR=2012
DGENRE=Country
TTITLE0=Journey On 
TTITLE1=If I Could Change The World
TTITLE2=One Wild Ride 
TTITLE3=She  
TTITLE4=Life's About People 
TTITLE5=Zero To Hero  
TTITLE6=Stand Up 
EXTD=
EXTT0=
EXTT1=
EXTT2=
EXTT3=
EXTT4=
EXTT5=
EXTT6=
PLAYORDER=
